<svg xmlns="http://www.w3.org/2000/svg" xmlns:xlink="http://www.w3.org/1999/xlink" width="134" height="117" version="1.1" viewBox="0 0 134 117"><title>bat/logo-full-color</title><desc>Created with Sketch.</desc><g fill="none" fill-rule="evenodd" stroke="none" stroke-width="1"><g><g><g transform="translate(-53.000000, -1950.000000) translate(50.000000, 1938.000000) translate(3.000000, 12.000000)"><path fill="#9E1F63" d="M67.0127615,0.242229474 L67.0127615,45.7778084 L94.265422,93.0088611 L133.798128,115.972903 C134.153587,115.350608 134.102807,114.492314 133.557853,113.549556 L101.276752,57.6051347 L68.9956514,1.65947158 C68.4494587,0.714229474 67.7311101,0.242229474 67.0127615,0.242229474"/><path fill="#FF4724" d="M0.22640367,115.972655 L39.7591101,93.0086126 L67.0130092,45.77756 L67.0130092,0.241981053 C66.293422,0.241981053 65.5750734,0.713981053 65.0301193,1.65922316 L32.7477798,57.6048863 L0.465440367,113.549307 C-0.0782752294,114.493307 -0.129055046,115.35036 0.22640367,115.972655"/><path fill="#662D91" d="M133.798005,115.972655 L94.2652982,93.0086126 L39.7587385,93.0086126 L0.22603211,115.972655 C0.58396789,116.597434 1.3518578,116.984971 2.44052752,116.984971 L131.583509,116.984971 C132.673417,116.984971 133.440069,116.597434 133.798005,115.972655"/><polygon fill="#FFF" points="39.759 93.008 94.266 93.008 67.013 45.779"/></g></g></g></g></svg>