<svg xmlns="http://www.w3.org/2000/svg" xmlns:xlink="http://www.w3.org/1999/xlink" id="Layer_1" x="0" y="0" version="1.1" viewBox="0 0 144 144" xml:space="preserve" style="enable-background:new 0 0 144 144"><style type="text/css">.st0{fill:#424242}</style><title>bat/logo-one-color-dark</title><desc>Created with Sketch.</desc><path d="M129.5,119.6c0.1-0.2,0.2-0.4,0.3-0.6c0-0.1,0-0.1,0-0.2c0-0.2,0.1-0.4,0.1-0.5c0-0.1,0-0.1,0-0.2	c0-0.2,0-0.5-0.1-0.7c0,0,0,0,0,0c-0.1-0.2-0.2-0.4-0.3-0.6c0,0,0-0.1,0-0.1L74.6,24.3c-0.5-0.9-1.5-1.5-2.6-1.5s-2,0.6-2.6,1.5	l-54.9,92.3c0,0,0,0.1,0,0.1c-0.1,0.2-0.2,0.4-0.3,0.6c0,0,0,0,0,0c-0.1,0.2-0.1,0.5-0.1,0.7c0,0.1,0,0.1,0,0.2c0,0.2,0,0.4,0.1,0.5	c0,0.1,0,0.1,0,0.2c0.1,0.2,0.1,0.4,0.3,0.6c0,0,0,0,0,0c0,0,0,0,0,0c0,0,0,0,0,0c0,0,0.1,0.1,0.1,0.1c0.1,0.2,0.2,0.4,0.4,0.5	c0.1,0.1,0.2,0.2,0.3,0.3c0.1,0.1,0.2,0.2,0.3,0.2c0.1,0.1,0.3,0.1,0.4,0.2c0.1,0,0.2,0.1,0.3,0.1c0.3,0.1,0.5,0.1,0.8,0.1	c0,0,0,0,0,0h109.7c0,0,0,0,0,0c0.3,0,0.5,0,0.8-0.1c0.1,0,0.2-0.1,0.3-0.1c0.2-0.1,0.3-0.1,0.5-0.2c0.1-0.1,0.2-0.1,0.3-0.2	c0.1-0.1,0.2-0.2,0.3-0.3c0.2-0.2,0.3-0.3,0.4-0.5C129.4,119.7,129.4,119.7,129.5,119.6C129.5,119.6,129.5,119.6,129.5,119.6	C129.5,119.6,129.5,119.6,129.5,119.6C129.5,119.6,129.5,119.6,129.5,119.6z M72,68.6l17.5,28.2H54.5L72,68.6z M69,62.1L47,97.6	l-21.5,12.3L69,36.8V62.1z M49.9,102.9h44.1l21.5,12.3H28.4L49.9,102.9z M97,97.6L75,62.1V36.8l43.5,73.1L97,97.6z" class="st0"/></svg>